<?xml version="1.0" standalone="no"?>
<!DOCTYPE svg PUBLIC "-//W3C//DTD SVG 20010904//EN"
 "http://www.w3.org/TR/2001/REC-SVG-20010904/DTD/svg10.dtd">
<svg version="1.0" xmlns="http://www.w3.org/2000/svg"
 width="512.000000pt" height="512.000000pt" viewBox="0 0 512.000000 512.000000"
 preserveAspectRatio="xMidYMid meet">
<metadata>
Created by potrace 1.14, written by Peter Selinger 2001-2017
</metadata>
<g transform="translate(0.000000,512.000000) scale(0.100000,-0.100000)"
fill="#000000" stroke="none">
<path d="M1583 5105 c-3 -9 -3 -19 0 -22 4 -3 2 -13 -3 -23 -5 -10 -12 -48
-15 -86 -3 -38 -7 -82 -10 -99 -2 -16 -7 -50 -10 -75 -3 -25 -7 -63 -10 -85
-3 -22 -8 -58 -10 -80 -7 -55 -33 -260 -41 -315 -3 -25 -8 -65 -10 -90 -2 -25
-6 -56 -8 -69 -5 -21 -9 -57 -21 -171 -7 -59 -17 -125 -21 -129 -2 -2 -250 -4
-551 -3 -316 0 -553 -4 -559 -9 -16 -13 -16 -645 0 -658 6 -5 224 -8 519 -7
l509 1 -7 -65 c-4 -36 -9 -74 -11 -85 -2 -11 -7 -47 -10 -80 -10 -95 -14 -126
-23 -184 -4 -30 -7 -70 -7 -88 1 -18 -2 -33 -6 -33 -4 0 -7 -10 -6 -22 0 -13
-2 -41 -6 -63 -6 -37 -15 -114 -21 -175 -1 -14 -5 -38 -8 -55 -4 -16 -10 -59
-13 -95 -3 -36 -8 -76 -10 -90 -2 -14 -6 -45 -8 -70 -3 -25 -9 -67 -13 -94
l-8 -49 -430 1 c-243 0 -435 -4 -441 -9 -16 -13 -16 -645 0 -658 6 -5 176 -9
395 -9 402 1 413 -1 391 -43 -5 -9 -12 -47 -15 -85 -3 -38 -7 -82 -10 -99 -2
-16 -7 -50 -10 -75 -3 -25 -7 -63 -10 -85 -3 -22 -7 -58 -10 -80 -3 -22 -9
-70 -15 -108 -5 -37 -9 -71 -8 -75 1 -4 -2 -23 -5 -42 -7 -38 -16 -104 -24
-185 -7 -65 -13 -113 -18 -150 -2 -16 -7 -50 -9 -75 -8 -72 -17 -134 -21 -147
-4 -10 68 -13 335 -13 l340 0 0 27 c0 16 4 55 9 88 5 33 8 71 7 85 -1 14 1 27
5 30 4 3 9 35 13 73 3 37 10 95 15 130 5 34 10 69 10 77 1 8 4 38 7 65 3 28 7
64 8 80 2 17 6 39 9 50 4 11 9 50 11 88 3 37 7 71 9 75 3 4 8 40 11 81 4 41 8
77 11 80 2 4 6 38 10 76 3 39 9 90 13 114 l7 44 626 1 625 1 -8 -45 c-5 -25
-11 -72 -14 -105 -4 -33 -9 -78 -11 -100 -3 -22 -6 -51 -7 -65 -2 -14 -6 -38
-9 -55 -4 -16 -9 -57 -13 -90 -9 -99 -15 -150 -40 -325 -3 -25 -8 -67 -11 -95
-7 -65 -13 -113 -18 -150 -2 -16 -7 -50 -9 -75 -8 -72 -17 -134 -21 -148 -4
-9 68 -12 335 -12 l340 0 0 27 c0 16 4 55 9 88 5 33 8 71 7 85 -1 14 1 27 5
30 4 3 9 35 13 73 3 37 10 95 15 130 5 34 10 69 10 77 1 14 7 64 16 135 2 17
8 63 14 104 6 41 9 76 7 79 -3 2 -1 14 4 27 5 12 11 55 14 94 3 40 7 75 10 79
5 9 19 140 20 195 1 30 5 37 21 38 11 0 260 0 553 1 432 0 535 3 546 14 11 10
14 78 14 326 0 172 -4 318 -9 324 -7 8 -151 12 -507 12 -273 1 -505 1 -514 1
-14 1 -15 6 -8 34 5 17 12 63 14 100 3 38 8 71 10 75 2 4 7 39 10 79 4 40 9
78 11 85 3 7 7 43 9 79 2 37 6 72 10 77 4 6 6 23 6 39 0 41 6 95 13 118 4 11
9 49 12 85 3 36 7 79 10 95 2 17 6 51 9 78 3 26 7 55 10 65 6 21 19 142 20
195 1 25 6 37 16 38 8 0 203 0 433 1 336 0 420 3 431 14 11 10 14 77 14 326 0
172 -4 318 -9 324 -7 8 -123 11 -395 12 -309 0 -388 2 -395 13 -4 7 -5 17 -3
21 7 12 13 46 18 103 2 28 7 61 10 75 3 14 8 49 11 79 3 29 9 83 14 120 5 36
9 73 10 81 0 8 2 31 5 50 3 19 8 58 11 85 4 28 8 66 11 85 2 19 6 53 9 75 3
22 9 70 15 108 5 37 9 71 8 75 -1 4 1 21 5 37 4 17 9 55 12 85 2 30 9 81 13
113 l9 57 -333 0 c-208 0 -335 -4 -339 -10 -3 -5 -8 -33 -11 -62 -2 -29 -7
-66 -9 -83 -5 -28 -9 -61 -22 -175 -3 -25 -7 -58 -9 -75 -3 -16 -6 -48 -8 -70
-2 -23 -6 -50 -10 -61 -3 -10 -8 -49 -10 -86 -2 -37 -7 -71 -9 -75 -3 -5 -8
-38 -11 -73 -3 -36 -10 -98 -16 -139 -6 -40 -9 -75 -6 -78 3 -3 1 -13 -4 -23
-5 -9 -12 -50 -15 -91 -4 -41 -9 -91 -11 -113 -1 -21 -5 -41 -8 -43 -2 -3
-282 -5 -621 -5 -501 0 -619 2 -626 13 -4 7 -5 17 -3 21 7 12 13 46 18 103 2
28 7 61 10 75 3 14 8 49 11 79 3 29 9 83 14 120 5 36 9 73 10 81 0 8 2 31 5
50 3 19 8 58 11 85 4 28 8 66 11 85 2 19 6 53 9 75 3 22 9 70 15 108 5 37 9
71 8 75 -1 4 1 21 5 37 4 17 9 55 12 85 2 30 9 81 13 113 l9 57 -334 0 c-291
0 -334 -2 -340 -15z m1663 -1924 c14 -1 25 -39 13 -43 -4 -2 -11 -37 -14 -78
-4 -41 -9 -91 -11 -110 -3 -19 -6 -51 -8 -70 -2 -20 -6 -45 -9 -55 -4 -11 -9
-51 -11 -88 -3 -38 -8 -71 -10 -75 -2 -4 -7 -43 -11 -87 -4 -44 -9 -91 -11
-105 -3 -23 -7 -57 -21 -170 -3 -25 -6 -58 -8 -75 -1 -16 -5 -39 -8 -50 -3
-11 -8 -47 -11 -80 -6 -71 -17 -149 -22 -154 -2 -2 -284 -4 -627 -5 l-623 -1
7 40 c7 42 17 115 26 200 10 91 13 120 22 174 4 30 7 70 7 88 -1 18 2 33 6 33
4 0 7 10 6 23 0 12 2 40 6 62 6 37 15 114 21 175 1 14 5 39 8 55 4 17 10 59
13 95 3 36 8 76 10 90 2 14 6 45 8 70 6 52 16 121 21 135 1 7 212 9 611 8 335
-1 614 -2 620 -2z"/>
</g>
</svg>
